<?xml version="1.0" encoding="UTF-8" standalone="no"?>
<!DOCTYPE svg PUBLIC "-//W3C//DTD SVG 1.1//EN" "http://www.w3.org/Graphics/SVG/1.1/DTD/svg11.dtd">
<svg width="100%" height="100%" viewBox="0 0 260 260" version="1.1" xmlns="http://www.w3.org/2000/svg" xmlns:xlink="http://www.w3.org/1999/xlink" xml:space="preserve" xmlns:serif="http://www.serif.com/" style="fill-rule:evenodd;clip-rule:evenodd;stroke-linejoin:round;stroke-miterlimit:2;">
    <g transform="matrix(1,0,0,1,-114,-169)">
        <rect x="0" y="0" width="1000" height="600" style="fill:rgb(7,44,80);"/>
    </g>
    <g transform="matrix(1,0,0,1,-114,-169)">
        <g transform="matrix(0.679392,0,0,0.679392,-2.51221,46.6703)">
            <rect x="195.521" y="206.21" width="333.333" height="333.333" style="fill:rgb(184,135,70);"/>
        </g>
        <g transform="matrix(0.679392,0,0,0.679392,-2.51221,46.6703)">
            <path d="M266.685,433.908C267.361,429.42 267.858,425.186 268.178,421.206C268.516,417.206 268.685,413.423 268.685,409.856L268.685,407.096C268.609,402.064 268.309,397.257 267.783,392.676C267.258,388.095 266.338,383.626 265.023,379.27L264.319,376.989C268.281,376.519 272.271,375.59 276.289,374.2C280.326,372.83 284.653,370.821 289.272,368.173C285.048,378.068 282.935,390.085 282.935,404.223L282.935,406.673C282.935,419.028 284.682,428.904 288.174,436.301L289.16,438.78C286.324,439.099 283.639,439.606 281.105,440.301C278.57,440.995 276.223,441.784 274.064,442.666C271.923,443.568 270.008,444.46 268.318,445.342C266.647,446.243 265.277,447.088 264.207,447.877C264.676,445.567 265.108,443.277 265.502,441.005C265.896,438.714 266.262,436.517 266.6,434.415L245.196,447.877C242.699,447.22 239.901,446.234 236.803,444.92C233.686,443.587 230.466,441.934 227.143,439.963C223.801,437.973 220.431,435.672 217.032,433.063C213.634,430.472 210.414,427.552 207.372,424.304C204.349,421.074 201.58,417.544 199.064,413.714C196.567,409.884 194.558,405.763 193.037,401.35C189.469,391.174 187.686,381.767 187.686,373.13C187.686,367.441 188.455,361.63 189.995,355.697C191.553,349.764 193.703,344.056 196.445,338.573C199.186,333.091 202.434,328.059 206.189,323.478C209.963,318.878 214.056,315.066 218.469,312.043L240.465,297.877C242.248,298.402 244.454,299.191 247.083,300.243C249.73,301.294 252.669,302.702 255.898,304.467C259.128,306.213 262.564,308.372 266.206,310.945C269.83,313.517 273.491,316.615 277.19,320.239C279.237,322.36 281.114,324.538 282.823,326.773L263.136,336.489C260.17,332.734 257.128,329.514 254.011,326.829C250.913,324.163 247.618,321.9 244.126,320.042C240.615,318.202 236.869,316.653 232.888,315.395C228.889,314.137 224.477,313.085 219.652,312.24L219.567,312.325C213.897,315.629 209.569,324.379 206.584,338.573C204.612,348.074 203.626,356.617 203.626,364.202C203.626,368.896 204.124,373.834 205.119,379.016C206.095,384.199 207.795,389.334 210.217,394.422C212.62,399.491 215.849,404.401 219.905,409.152C223.961,413.921 229.096,418.249 235.311,422.135C244.623,428.068 255.081,431.992 266.685,433.908ZM395.027,433.908C395.684,429.42 396.172,425.186 396.492,421.206C396.83,417.206 396.998,413.423 396.998,409.856L396.998,407.096C396.923,402.064 396.623,397.257 396.097,392.676C395.572,388.095 394.652,383.626 393.337,379.27L392.633,376.989C396.595,376.519 400.594,375.59 404.631,374.2C408.649,372.83 412.967,370.821 417.586,368.173C413.362,378.068 411.249,390.085 411.249,404.223L411.249,406.673C411.249,419.028 412.995,428.904 416.488,436.301L417.502,438.78C414.648,439.099 411.953,439.606 409.419,440.301C406.884,440.995 404.546,441.784 402.406,442.666C400.247,443.568 398.332,444.46 396.661,445.342C394.971,446.243 393.6,447.088 392.549,447.877C392.999,445.567 393.422,443.277 393.816,441.005C394.229,438.714 394.595,436.517 394.914,434.415L373.538,447.877C371.022,447.22 368.215,446.234 365.117,444.92C362.019,443.587 358.799,441.934 355.457,439.963C352.134,437.973 348.773,435.672 345.374,433.063C341.957,430.472 338.737,427.552 335.714,424.304C332.673,421.074 329.894,417.544 327.378,413.714C324.881,409.884 322.872,405.763 321.351,401.35C317.783,391.174 316,381.767 316,373.13C316,367.441 316.779,361.63 318.337,355.697C319.877,349.764 322.017,344.056 324.759,338.573C327.5,333.091 330.757,328.059 334.531,323.478C338.287,318.878 342.37,315.066 346.783,312.043L368.778,297.877C370.562,298.402 372.778,299.191 375.425,300.243C378.054,301.294 380.983,302.702 384.212,304.467C387.46,306.213 390.896,308.372 394.52,310.945C398.144,313.517 401.805,316.615 405.504,320.239C407.55,322.36 409.437,324.538 411.165,326.773L391.45,336.489C388.484,332.734 385.451,329.514 382.353,326.829C379.237,324.163 375.932,321.9 372.44,320.042C368.947,318.202 365.202,316.653 361.202,315.395C357.203,314.137 352.8,313.085 347.994,312.24L347.881,312.325C342.211,315.629 337.892,324.379 334.926,338.573C332.935,348.074 331.94,356.617 331.94,364.202C331.94,368.896 332.438,373.834 333.433,379.016C334.428,384.199 336.127,389.334 338.531,394.422C340.934,399.491 344.163,404.401 348.219,409.152C352.293,413.921 357.428,418.249 363.624,422.135C372.937,428.068 383.405,431.992 395.027,433.908ZM469.182,447.877C470.628,438.038 471.698,427.627 472.393,416.643C473.087,405.641 473.435,393.906 473.435,381.439C473.435,364.615 473.106,350.421 472.449,338.855C471.792,327.308 470.994,318.399 470.055,312.128C462.019,312.653 454.462,313.846 447.383,315.704C440.324,317.544 433.696,320.051 427.5,323.224C428.814,320.708 430.119,317.357 431.415,313.17C432.691,308.983 433.593,304.016 434.118,298.271L436.709,299.06C444.501,301.501 461.991,302.721 489.178,302.721C507.259,302.721 523.097,301.238 536.691,298.271C534.794,302.758 533.33,307.002 532.297,311.001C531.283,314.982 530.607,319.056 530.269,323.224L528.185,321.844C520.13,316.493 508.452,313.292 493.149,312.24C492.023,320.746 491.159,329.636 490.558,338.911C489.976,348.187 489.685,358.504 489.685,369.863C489.742,385.766 490.033,399.135 490.558,409.968C491.084,420.783 492.014,429.195 493.347,435.203L494.135,438.78C491.093,439.099 488.287,439.587 485.714,440.244C483.142,440.902 480.814,441.7 478.73,442.638C476.646,443.558 474.815,444.46 473.238,445.342C471.661,446.243 470.309,447.088 469.182,447.877Z" style="fill:rgb(7,44,80);fill-rule:nonzero;"/>
        </g>
    </g>
</svg>
